# xmcd
#
# Track frame offsets:
# 150
# 14914
# 30687
#
# Disc length: 619 seconds
#
# Revision: 1
# Processed by: cddbd v1.5.2PL0 Copyright (c) Steve Scherf et al.
# Submitted via: CedeCatalogueitor 2.6.0.6 http://personales.ya.com/cdcatalogueitor
#
DISCID=21026903
DTITLE=The Kills - Love Is A Deserter
DYEAR=1900
DGENRE=
TTITLE0=Love Is A Deserter (radio Edit)
TTITLE1=Love Is A Deserter (single Version)
TTITLE2=Love Is A Deserter (instrumental)
EXTD=
EXTT0=
EXTT1=
EXTT2=
PLAYORDER=
